PathFileType	4	(X/Y/Z)	/home/abdul/Desktop/myosuite/custom_workspace/IK/output/S16_12_1.trc
DataRate	CameraRate	NumFrames	NumMarkers	Units	OrigDataRate	OrigDataStartFrame	OrigNumFrames
200.0	200.0	45	3	mm	200.0	761	1216
Frame#	Time	V_Shoulder			V_Elbow			V_Wrist		
		X1	Y1	Z1	X2	Y2	Z2	X3	Y3	Z3

761	3.8	-110.19823957086818	592.2977618870476	298.6862074159014	-226.18739646035638	433.10920050539585	39.71300916891856	-93.79598349444728	218.52980098414127	48.83690559393136
762	3.805	-110.1572722553509	592.1999623662978	298.67576249532453	-226.15910810494455	433.0752949718775	39.667951614450686	-93.82842149754408	218.47993439706448	48.62544262075158
763	3.81	-110.11730210288106	592.1032585413046	298.6652667645938	-226.13094226688952	433.04030445228165	39.62451738358592	-93.86052481449416	218.42835527588161	48.41408513337804
764	3.815	-110.078344418664	592.0076582893709	298.65472163099093	-226.10284103938844	433.00413420605923	39.58274193385115	-93.89212007147626	218.37495838811014	48.20295339161824
765	3.82	-110.04041377961634	591.9131707254913	298.64412848523517	-226.07474953989595	432.9666979805057	39.54265493292515	-93.92303949460705	218.31964673645956	47.992175514748425
766	3.825	-110.00352401652133	591.8198062082274	298.63348871853196	-226.0466161160742	432.9279181400809	39.50428028431371	-93.95312160151695	218.26233167493714	47.78188755328489
767	3.83	-109.96768819681911	591.727576342619	298.6228037410688	-226.0183925553747	432.8877257780201	39.467636173415116	-93.98221189772232	218.20293301923775	47.57223355585117
768	3.835	-109.93291860806839	591.6364939801061	298.612075001896	-225.99003429773833	432.84606081042705	39.432735133604766	-94.01016357637982	218.14137915202082	47.363365630851845
769	3.84	-109.8992267421152	591.5465732154452	298.6013040101149	-225.96150065085067	432.8028720530762	39.39958413190438	-94.03683821994805	218.0776071236332	47.15544400260187
770	3.845	-109.86662328000735	591.4578293806125	298.59049235729793	-225.93275500734012	432.7581172811854	39.36818467374053	-94.06210650222425	218.01156274878747	46.948637061495596
771	3.85	-109.8351180776923	591.3702790356971	298.57964174104814	-225.90376506326038	432.71176327245416	39.3385329262366	-94.0858488891678	217.94320069965093	46.743121407730214
772	3.855	-109.80472015253805	591.283939956789	298.56875398960636	-225.8745030371517	432.6637858336924	39.31061985942495	-94.10795633686797	217.8724845957466	46.53908188802639
773	3.86	-109.77543767071688	591.1988311208859	298.5578310874012	-225.84494588893165	432.61416981139354	39.28443140470954	-94.12833098496293	217.7993870910068	46.33671162471461
774	3.865	-109.74727793549202	591.1149726878424	298.54687520143426	-225.81507553782524	432.5629090866357	39.2599486298553	-94.14688684376777	217.72388995825943	46.13621203647994
775	3.87	-109.72024737644836	591.0323859793984	298.535888708385	-225.78487907850348	432.51000655471813	39.23714792972887	-94.16355047332459	217.64598417136392	45.93779284998113
776	3.875	-109.69435153970801	590.951093455331	298.5248742223138	-225.75434899456417	432.4554740899642	39.21600123196588	-94.17826165254431	217.56566998514745	45.74167210148352
777	3.88	-109.66959507917227	590.8711186867827	298.5138346228364	-225.72348336845482	432.39933249614614	39.19647621669294	-94.19097403657247	217.48295701322922	45.54807612756956
778	3.885	-109.64598174883076	590.7924863268255	298.5027730836379	-225.6922860869072	432.3416114430055	39.17853654938831	-94.20165580047508	217.39786430375213	45.35723954391663
779	3.89	-109.62351439617946	590.7152220783317	298.4916931011891	-225.66076704092706	432.2823493893619	39.162142125923864	-94.21029026730947	217.31042041297633	45.16940521106088
780	3.895	-109.60219495678854	590.6393526592256	298.4805985235239	-225.6289423193591	432.2215934933223	39.147249328791986	-94.21687651861862	217.22066347662206	44.98482418599768
781	3.9	-109.58202445006027	590.5649057652009	298.46949357893294	-225.59683439502865	432.1593995101132	39.13381129348593	-94.22142998536393	217.1286412787865	44.80375565840626
782	3.905	-109.5630029762175	590.4919100299963	298.4583829044249	-225.56447230244675	432.0958316780773	39.121778183969305	-94.2239830172941	217.03441131819224	44.62646687022781
783	3.91	-109.5451297145617	590.4203949833245	298.4472715738038	-225.5318918060551	432.03096259338383	39.11109747614133	-94.22458542873379	216.93804087146736	44.453233017274634
784	3.915	-109.52840292303911	590.3503910065613	298.4361651252091	-225.49913555798236	431.96487307401344	39.101714248178475	-94.22330501876843	216.83960705309255	44.28433713150311
785	3.92	-109.51281993915295	590.2819292863051	298.4250695879626	-225.4662532442809	431.89765201358443	39.09357147661073	-94.22022806379772	216.73919687159702	44.12006994254623
786	3.925	-109.49837718225724	590.2150417659224	298.413991508566	-225.43330171861948	431.8293962255977	39.086610336971695	-94.215459780434	216.636907281528	43.96072971707333
787	3.93	-109.48507015726814	590.1497610952009	298.40293797569103	-225.40034512241326	431.760210278677	39.080770507846424	-94.20912475672907	216.5328452306685	43.80662207452575
788	3.935	-109.47289345982541	590.0861205782398	298.39191664400613	-225.36745499039012	431.6902063233881	39.07599047712918	-94.20136734972823	216.42712770192924	43.65805977776853
789	3.94	-109.46184078293648	590.0241541197048	298.38093575668154	-225.3347103406079	431.6195039112172	39.07220784929566	-94.19235204736992	216.3198817492975	43.51536249720028
790	3.945	-109.45190492513258	589.9638961695865	298.37000416641774	-225.30219774796393	431.54822980628904	39.06935965249	-94.18226379277664	216.21124452718539	43.378856546877316
791	3.95	-109.44307780016551	589.9053816666002	298.35913135484356	-225.27001140026675	431.47651779040245	39.06738264422693	-94.17130826901519	216.10136331248378	43.24887459123305
792	3.955	-109.43535044827023	589.8486459803681	298.34832745013165	-225.23825313597493	431.40450846195245	39.06621361451346	-94.1597121424455	215.99039551859784	43.12575532101212
793	3.96	-109.42871304901716	589.7937248525328	298.33760324268417	-225.20703246274692	431.3323490293026	39.06578968520243	-94.14772326282227	215.87850870071512	43.0098430970894
794	3.965	-109.42315493577534	589.7406543369445	298.32697019874155	-225.17646655599185	431.26019309915796	39.06604860440244	-94.13561081836883	215.76588055153422	42.901487560907626
795	3.97	-109.41866461180466	589.6894707390741	298.3164404717757	-225.1466802366598	431.18820046047796	39.06692903478508	-94.1236654441027	215.65269888666813	42.80104321034494
796	3.975	-109.41522976799293	589.6402105548015	298.3060269115303	-225.1178059275653	431.1165368644495	39.06837083465101	-94.11219928175964	215.5391616189251	42.7088689399143
797	3.98	-109.41283730225102	589.5929104087294	298.29574307057743	-225.08998358759666	431.0453738010258	39.07031533064145	-94.10154598973978	215.4254767206657	42.625327544300816
798	3.985	-109.41147334057507	589.5476069921713	298.2856032082672	-225.06336062322768	430.97488827250993	39.07270558101086	-94.09206070158021	215.31186217343543	42.550785184361104
799	3.99	-109.41112325978322	589.504337000969	298.27562229195087	-225.0380917768171	430.9052625646408	39.075486628410545	-94.0841199315496	215.19854590407806	42.485610814839646
800	3.995	-109.41177171192972	589.463137073284	298.26581599536775	-225.014338991252	430.83668401560664	39.07860574117113	-94.07812142605704	215.08576570654807	42.4301755732015
801	4.0	-109.4134026503965	589.4240437275137	298.2562006940913	-224.99227125056836	430.7693447833826	39.082012642114435	-94.07448395967239	214.9737691486573	42.38485212913735
802	4.005	-109.41599935765868	589.387093300477	298.2467934579416	-224.972064396262	430.7034416117485	39.08565972397314	-94.07364707466746	214.86281346301513	42.350013994466494
803	4.01	-109.41954447471635	589.3523218860142	298.23761204027386	-224.95390091908502	430.63917559530563	39.08950225054821	-94.07607076310643	214.75316542144984	42.326034793344206
804	4.015	-109.42402003218206	589.3197652741416	298.2286748640705	-224.93796972621033	430.57675194376543	39.09349854279096	-94.08223509064123	214.64510119223348	42.313287492872036
805	4.02	-109.42940748300873	589.289458890899	298.2200010047652	-224.92446588373434	430.51637974573214	39.09761014905805	-94.09263976130052	214.53890617947215	42.31214359441208
